<svg aria-hidden="true" style="position: absolute; width: 0; height: 0; overflow: hidden;" version="1.1" xmlns="http://www.w3.org/2000/svg" xmlns:xlink="http://www.w3.org/1999/xlink">
<defs>
<symbol id="icon-vector" viewBox="0 0 32 32">
<path fill="#f4f4fd" style="fill: var(--color3, #f4f4fd)" d="M22.921 8.979c0.329-0.289 0.766-0.449 1.22-0.445s0.889 0.169 1.212 0.462c0.324 0.293 0.512 0.691 0.524 1.11s-0.153 0.825-0.459 1.134l-9.31 10.748c-0.16 0.159-0.353 0.287-0.568 0.376s-0.447 0.136-0.682 0.14c-0.235 0.004-0.469-0.036-0.687-0.117s-0.416-0.202-0.583-0.356l-6.174-5.699c-0.172-0.148-0.31-0.326-0.405-0.524s-0.147-0.412-0.151-0.629c-0.004-0.217 0.039-0.432 0.127-0.633s0.219-0.384 0.385-0.537c0.166-0.153 0.364-0.274 0.582-0.356s0.451-0.121 0.686-0.117c0.235 0.004 0.467 0.051 0.681 0.14s0.408 0.216 0.568 0.374l4.886 4.508 8.104-9.531c0.015-0.017 0.030-0.032 0.047-0.047h-0.002z"></path>
</symbol>
</defs>
</svg>
